<svg width="100" height="100" viewBox="0 0 100 100" fill="none" xmlns="http://www.w3.org/2000/svg">
<g clip-path="url(#clip0_1394_2762)">
<path d="M25.9645 89.1921L19.6422 77.748L25.3058 67.4763L20.2527 58.2758H8.70861L2.40234 46.9813L8.60016 35.5737H21.8353L27.3864 45.6959H37.5046L43.2847 35.4807H56.3592L62.5409 46.7833L56.8854 57.0954L62.083 66.2838L73.7355 66.3161L79.9254 77.651L73.6873 89.0506L60.7454 89.0344L54.8248 78.702H44.7629C44.7629 78.702 39.509 87.9996 38.8301 89.1921H25.9565H25.9645ZM22.8395 78.9608L27.282 86.8232H36.167L31.7044 78.9284L22.8435 78.9608H22.8395ZM76.001 78.892C75.3262 78.9001 74.6795 78.9082 74.0328 78.9122L71.6589 78.9325C70.4298 78.9446 69.1966 78.9527 67.9675 78.9608H67.7787L67.6863 79.1265C66.5817 81.0911 65.4731 83.0557 64.3605 85.0203L63.3965 86.7262H72.2815L72.3739 86.5605C73.2495 85.0001 74.1372 83.4357 75.0209 81.8672L74.9888 81.8834C75.0852 81.75 75.2298 81.4913 75.5069 81.0062L76.7079 78.8839L76.005 78.892H76.001ZM33.6807 77.6834L38.1794 85.6186L42.7063 77.6308L38.2718 69.8088L33.6807 77.6834ZM56.9295 77.6712L61.3761 85.5175L65.7623 77.7763L61.3158 69.926L56.9295 77.6712ZM22.8355 76.5919L30.3428 76.5555L30.0656 76.0704C30.0656 76.0704 27.997 72.4161 26.9526 70.5728L26.5992 69.9462L22.8355 76.596V76.5919ZM69.1404 76.5757L76.716 76.5111L76.4468 76.03C75.5752 74.4616 74.1292 71.9149 73.2254 70.3464L72.9402 69.8532L69.1364 76.5757H69.1404ZM46.0482 76.3494H54.877L59.3195 68.4869H50.7438L46.0522 76.3494H46.0482ZM67.1079 75.3954L70.9238 68.6446H63.284L67.1039 75.3954H67.1079ZM28.8043 68.972C29.0895 69.4813 29.439 70.12 29.8166 70.8032C30.5838 72.1938 31.4514 73.7703 32.0619 74.8254L32.3431 75.3105L32.6243 74.8294C33.2469 73.7582 36.0023 68.9801 36.0023 68.9801L36.2875 68.4869H28.5312L28.8043 68.976V68.972ZM44.0077 75.1932L48.0003 68.4829C48.0003 68.4829 45.9478 68.4829 45.2127 68.4829H40.2279L44.0117 75.1892L44.0077 75.1932ZM28.9208 65.4874L28.5433 66.2514L37.5086 66.1383L41.9632 58.2596H32.4676C32.4676 58.2596 30.0777 63.1348 28.9208 65.4874ZM50.7397 66.1221H59.3155L59.0383 65.633C57.6807 63.2318 56.323 60.8346 54.9694 58.4335L54.877 58.2677H46.0562L50.7397 66.1221ZM43.7225 59.8928C42.8147 61.4733 41.3647 64.0483 40.4931 65.633L40.2239 66.1221H40.7782C42.9995 66.1181 45.2167 66.1181 47.4299 66.1181H48.0043L43.9997 59.4158L43.7225 59.8968V59.8928ZM26.5831 64.9336L29.8527 58.2879H22.9399L26.5831 64.9336ZM11.3878 55.907L18.9031 55.8867L15.1434 49.2491L11.3838 55.911L11.3878 55.907ZM46.3012 55.8908H54.881L59.2432 48.0283H50.7598L46.3012 55.8908ZM32.4596 55.8908H41.9672L37.5247 48.0283H28.6035L32.4596 55.8908ZM22.9801 55.8787H29.8407L26.6594 49.3664L22.9801 55.8787ZM40.2199 48.0607L44.1242 54.9691L48.0606 48.0283L40.2199 48.0607ZM4.9369 46.8641L9.37539 54.6983L13.8219 46.8479L9.37539 39.0057L4.9369 46.8641ZM20.9436 54.6942L24.7033 48.0485H17.1799L20.9396 54.6942H20.9436ZM15.8423 45.6797H24.7153L20.2728 37.8172H11.4039L15.8423 45.6797ZM50.7478 45.6676H59.3235L54.885 37.8132H46.0683L50.7478 45.6676ZM40.232 45.6554H48.0124L44.0197 38.9612L40.232 45.6554Z" fill="white"/>
<path d="M46.2411 81.7783H53.3949L55.7446 85.8733H43.9395L46.2411 81.7783Z" fill="white" fill-opacity="0.33"/>
<path d="M22.2125 67.6179L14.0906 81.7785H18.6456L20.9311 85.8734H7.0332L19.9068 63.4421L22.2125 67.6179Z" fill="white" fill-opacity="0.33"/>
<path d="M80.8617 81.7784H85.8987L49.9971 19.1939L36.4125 42.8703L31.7129 42.8662L49.9971 11L92.9521 85.8733H78.6043L80.8617 81.7784Z" fill="white" fill-opacity="0.33"/>
</g>
<defs>
<clipPath id="clip0_1394_2762">
<rect width="96" height="78.4225" fill="white" transform="translate(2 11)"/>
</clipPath>
</defs>
</svg>
